<?xml version="1.0" encoding="utf-8"?>
<!-- Generator: Adobe Illustrator 25.3.1, SVG Export Plug-In . SVG Version: 6.00 Build 0)  -->
<svg version="1.1" id="Capa_1" xmlns="http://www.w3.org/2000/svg" xmlns:xlink="http://www.w3.org/1999/xlink" x="0px" y="0px"
	 viewBox="0 0 128.2 118.6" style="enable-background:new 0 0 128.2 118.6;" xml:space="preserve">
<style type="text/css">
	.st0{fill:url(#SVGID_1_);}
	.st1{display:none;}
</style>
<linearGradient id="SVGID_1_" gradientUnits="userSpaceOnUse" x1="44.3516" y1="180.4386" x2="99.8116" y2="79.5886" gradientTransform="matrix(1 0 0 -1 -7.9 189.51)">
	<stop  offset="0" style="stop-color:#5DF0DF"/>
	<stop  offset="1" style="stop-color:#0ACBFE"/>
</linearGradient>
<path class="st0" d="M111.3,57.2c-6.7-8-15.1-14.3-24.6-18.7c-9.6-4.3-20.2-6.2-30.8-5.3c-5.3,0.5-10.6,1.5-15.7,3
	c-5.1,1.6-10.2,3.6-15,6c4.7-2.8,9.6-5.2,14.6-7.2c5.1-2,10.4-3.4,15.9-4.3C66.7,29,78,30.1,88.6,33.9c10.6,3.9,20.2,10.2,28.2,18.2
	c1.7,1.7,3.4,3.5,4.9,5.3c-0.4-11.8-4.4-23.2-11.5-32.7c-2.8-1.2-5.5-2.3-8.4-3.3c-8.9-3.2-18.3-5.2-27.7-5.8
	c-9.5-0.6-19.1,0.8-28,4.1C37,23.3,28.9,29,22.5,36.2c5.9-7.9,13.7-14.4,22.6-18.7c9.1-4.3,19-6.6,29-6.8c8.1-0.2,16.3,0.6,24.2,2.3
	C72.7-5.9,36.7-0.6,17.7,25c-4.3,5.8-7.5,12.4-9.4,19.4c-0.3,1.2-0.6,2.5-0.8,3.7c0.1,0.2,0.2,0.5,0.4,0.7c2.6,4.5,5.6,8.7,8.9,12.6
	c6.7,8,15.1,14.3,24.6,18.7c9.7,4.4,20.3,6.2,30.9,5.3c5.3-0.5,10.6-1.5,15.7-3c5.1-1.6,10.2-3.6,15-6c-4.7,2.8-9.6,5.2-14.6,7.2
	c-5.1,2-10.4,3.4-15.9,4.3c-11.1,1.8-22.4,0.7-32.9-3.1C29,80.8,19.4,74.5,11.4,66.5c-1.7-1.7-3.3-3.5-4.9-5.3
	C6.9,73,10.9,84.4,18,93.8c2.7,1.2,5.5,2.3,8.3,3.3c8.9,3.2,18.3,5.2,27.7,5.8c9.5,0.6,19.1-0.8,28-4.1c9-3.5,17.1-9.1,23.6-16.4
	c-5.9,7.9-13.7,14.4-22.6,18.7c-9.1,4.3-19,6.6-29,6.8c-8.1,0.2-16.3-0.6-24.2-2.3c25.6,19,61.6,13.6,80.6-11.9
	c4.3-5.8,7.5-12.4,9.4-19.4c0.3-1.2,0.6-2.4,0.8-3.7c-0.1-0.2-0.2-0.5-0.4-0.7C117.7,65.4,114.7,61.1,111.3,57.2z M92,70.1
	c-1.5,0.5-3.1,0.9-4.7,1.3c-3,0.6-6,1-9.1,1.1c-5.8,0.2-11.5-0.5-17-2c-5.6-1.5-10.9-3.8-15.9-6.8c-2.6-1.6-5-3.4-7.3-5.4
	c-1.2-1.1-2.3-2.2-3.5-3.5c-1.2-1.3-2.3-2.7-3.2-4.2c1.6-0.8,3.2-1.5,4.9-2c1.6-0.5,3.1-0.9,4.7-1.3c3-0.6,6-1,9.1-1.1
	c5.8-0.2,11.5,0.5,17.1,2c5.6,1.5,10.9,3.7,15.8,6.8c2.6,1.6,5,3.4,7.3,5.5c1.2,1.1,2.4,2.2,3.5,3.5c1.2,1.3,2.3,2.7,3.3,4.2
	C95.3,68.9,93.7,69.6,92,70.1z"/>
<path class="st1" d="M-99.3,152.8c0-0.8,0-1.3,0.8-1.3h23.3c0.8,0,0.8,0.6,0.8,1.3s0,1.3-0.8,1.3h-10.2v32.4c0,0.8-0.7,0.8-1.5,0.8
	s-1.5,0-1.5-0.8v-32.4h-10.2C-99.3,154.1-99.3,153.5-99.3,152.8z"/>
<path class="st1" d="M-33.2,184.6h-23.4c-0.8,0-0.9,0.6-0.9,1.3s0.1,1.3,0.9,1.3h23.4c0.8,0,0.9-0.6,0.9-1.3S-32.4,184.6-33.2,184.6
	z"/>
<path class="st1" d="M-33.2,151.4h-23.4c-0.8,0-0.9,0.6-0.9,1.3s0.1,1.3,0.9,1.3h23.4c0.8,0,0.9-0.6,0.9-1.3S-32.4,151.4-33.2,151.4
	z"/>
<path class="st1" d="M-38.6,167h-18c-0.8,0-0.9,0.6-0.9,1.3s0.1,1.3,0.9,1.3h18c0.8,0,0.9-0.6,0.9-1.3S-37.8,167-38.6,167z"/>
<path class="st1" d="M229.6,184.6h-23.4c-0.8,0-0.9,0.6-0.9,1.3s0.1,1.3,0.9,1.3h23.4c0.8,0,0.9-0.6,0.9-1.3
	S230.4,184.6,229.6,184.6z"/>
<path class="st1" d="M229.6,151.4h-23.4c-0.8,0-0.9,0.6-0.9,1.3s0.1,1.3,0.9,1.3h23.4c0.8,0,0.9-0.6,0.9-1.3
	S230.4,151.4,229.6,151.4z"/>
<path class="st1" d="M224.2,167h-18c-0.8,0-0.9,0.6-0.9,1.3s0.1,1.3,0.9,1.3h18c0.8,0,0.9-0.6,0.9-1.3S225,167,224.2,167z"/>
<path class="st1" d="M-0.9,151.2c5,0,11,2.2,14.3,5.7c0.6,0.7-0.1,2.2-1.2,2.2c-0.4,0-0.7-0.2-1-0.4c-3.2-3.2-7.6-4.9-12.2-4.9
	c-9.3,0-16.9,7-16.9,15.5s7.6,15.4,16.9,15.4c3.7,0,7.3-1.1,10.3-3.2c0.7-0.5,1.6-1.3,2.3-1.8c0.2-0.2,0.5-0.3,0.7-0.3
	c0.4,0,0.8,0.2,1.1,0.5c0.5,0.4,1,0.9,0.3,1.6c-3.7,3.9-9.8,5.8-14.7,5.8c-10.9,0-20-8-20-18S-11.9,151.2-0.9,151.2z"/>
<path class="st1" d="M29.8,152.1c0-0.6,0.4-0.7,1-0.7h1c0.6,0,1.1,0.1,1.1,0.7V167h21.6v-14.9c0-0.6,0.4-0.7,1-0.7h1
	c0.6,0,1,0.1,1,0.7v34.3c0,0.8-0.6,0.8-1.5,0.8s-1.5,0-1.5-0.8v-16.8H32.8v16.8c0,0.8-0.7,0.8-1.5,0.8c-0.8,0-1.5,0-1.5-0.8
	L29.8,152.1z"/>
<path class="st1" d="M92.3,151.2c5.7,0,11.6,2,14.4,5.5c0.5,0.6,0.3,1-0.2,1.5c-0.3,0.3-0.7,0.5-1.2,0.5c-0.4,0-0.7-0.2-1-0.4
	c-3.3-3-7.6-4.5-12-4.4c-9.4,0-16.9,6.9-16.9,15.5s7.5,15.4,16.8,15.4c4.4,0,8.6-1.6,11.9-4.4v-9.3h-7.8c-0.9,0-0.9-0.5-0.9-1.3
	s0-1.3,0.9-1.3h9.7c0.8,0,1.1,0.2,1.1,1v11.5c0,0.4-0.2,0.7-0.5,0.9c-3.9,3.6-9.1,5.6-14.4,5.6c-10.9,0-19.8-8.1-19.8-18.1
	S81.4,151.2,92.3,151.2z"/>
<path class="st1" d="M142.9,158.8l-2.8-6.1c-0.3-0.7-1.6-3.3-1.6-3.3s-1.3,2.6-1.5,2.9l-15.5,33.9c-0.5,1,0.7,1.1,1.6,1.1h0.2
	c0.5,0,1.1,0,1.3-0.5l3.7-8.1l1.2-2.6l9-19.7l9,19.7l1.2,2.6l3.7,8.1c0.2,0.5,0.9,0.5,1.5,0.5h0.4c0.7,0,1.3,0,1.3-0.5
	C155.5,185.9,144.2,161.6,142.9,158.8z"/>
<path class="st1" d="M163.6,152.8c0-0.8,0-1.3,0.8-1.3h23.4c0.8,0,0.8,0.6,0.8,1.3s0,1.3-0.8,1.3h-10.2v32.4c0,0.8-0.7,0.8-1.5,0.8
	s-1.5,0-1.5-0.8v-32.4h-10.2C163.6,154.1,163.6,153.5,163.6,152.8z"/>
</svg>
