<?xml version="1.0" encoding="utf-8"?>
<!-- Generator: Adobe Illustrator 25.2.1, SVG Export Plug-In . SVG Version: 6.00 Build 0)  -->
<svg version="1.1" id="Capa_1" xmlns="http://www.w3.org/2000/svg" xmlns:xlink="http://www.w3.org/1999/xlink" x="0px" y="0px"
	 width="475.9px" height="108px" viewBox="0 0 475.9 108" style="enable-background:new 0 0 475.9 108;" xml:space="preserve">
<style type="text/css">
	.st0{fill:url(#SVGID_1_);}
</style>
<linearGradient id="SVGID_1_" gradientUnits="userSpaceOnUse" x1="28.0832" y1="6.9439" x2="80.0496" y2="101.4283">
	<stop  offset="0" style="stop-color:#5DF0DF"/>
	<stop  offset="1" style="stop-color:#0ACBFE"/>
</linearGradient>
<path class="st0" d="M98.2,52.1C91.9,44.7,84,38.6,75.1,34.5c-8.9-4-18.9-5.8-28.8-4.9c-5,0.4-9.9,1.4-14.7,2.8
	c-4.8,1.4-9.5,3.4-14.1,5.6c4.4-2.5,8.9-4.9,13.7-6.7c4.8-1.8,9.7-3.2,14.8-4c10.2-1.7,21-0.7,30.9,2.9c9.9,3.6,18.9,9.6,26.4,17.1
	c1.6,1.6,3.1,3.3,4.6,5c-0.4-11.2-4.2-21.9-10.8-30.6c-2.6-1.1-5.2-2.1-7.8-3.1c-8.4-2.9-17.1-4.9-26-5.4
	c-8.9-0.5-17.9,0.6-26.2,3.9c-8.4,3.2-16,8.6-22.1,15.4c5.5-7.3,12.7-13.5,21.1-17.5c8.4-4.1,17.8-6.1,27.2-6.4
	c7.6-0.2,15.2,0.6,22.7,2.1c-5.3-3.9-11.4-7-18.2-8.8C39.1-5.9,9.5,11.2,1.8,40c-0.3,1.2-0.6,2.3-0.8,3.5c0.1,0.2,0.2,0.4,0.3,0.6
	c2.4,4.2,5.2,8.1,8.4,11.8c6.3,7.4,14.1,13.5,23.1,17.5c8.9,4,18.9,5.8,28.8,4.9c5-0.4,9.9-1.4,14.7-2.8c4.8-1.4,9.5-3.4,14.1-5.6
	c-4.4,2.5-8.9,4.9-13.7,6.7c-4.8,1.8-9.7,3.2-14.8,4c-10.2,1.7-21,0.7-30.9-2.9c-9.9-3.6-18.9-9.6-26.4-17.1c-1.6-1.6-3.1-3.3-4.6-5
	c0.4,11.2,4.2,21.9,10.8,30.6c2.6,1.1,5.2,2.1,7.8,3.1c8.4,2.9,17.1,4.9,26,5.4c8.9,0.5,17.9-0.6,26.2-3.9c8.4-3.2,16-8.6,22.1-15.4
	c-5.5,7.3-12.7,13.5-21.1,17.5c-8.4,4.1-17.8,6.1-27.2,6.4c-7.6,0.2-15.2-0.6-22.7-2.1c5.3,3.9,11.4,7,18.2,8.8
	c28.8,7.7,58.4-9.4,66.1-38.2c0.3-1.1,0.6-2.3,0.8-3.4c-0.1-0.2-0.2-0.4-0.4-0.7C104.2,59.7,101.3,55.7,98.2,52.1z M80.1,64.1
	c-1.5,0.5-3,0.9-4.4,1.2c-2.9,0.6-5.7,0.9-8.5,1c-5.5,0.2-10.8-0.5-16-1.9C46.1,63,41.1,61,36.4,58c-2.4-1.5-4.7-3.2-6.9-5.1
	c-1.1-1-2.2-2.1-3.3-3.2c-1.1-1.2-2.1-2.4-3.1-3.9c1.6-0.8,3.1-1.4,4.6-1.9c1.5-0.5,3-0.9,4.4-1.2c2.9-0.6,5.7-0.9,8.5-1
	c5.5-0.2,10.9,0.5,16,1.9c5.1,1.4,10.1,3.4,14.8,6.3c2.4,1.5,4.7,3.2,6.9,5.1c1.1,1,2.2,2.1,3.3,3.2c1.1,1.2,2.1,2.4,3.1,3.9
	C83.1,63.1,81.6,63.6,80.1,64.1z"/>
<g>
	<g>
		<path d="M146.1,37.5c0-0.8,0-1.3,0.8-1.3h23.3c0.8,0,0.8,0.6,0.8,1.3c0,0.7,0,1.3-0.8,1.3h-10.2v32.4c0,0.8-0.7,0.8-1.5,0.8
			s-1.5,0-1.5-0.8V38.8h-10.2C146.1,38.8,146.1,38.3,146.1,37.5z"/>
		<path d="M212.1,69.3h-23.4c-0.8,0-0.9,0.6-0.9,1.3s0.1,1.3,0.9,1.3h23.4c0.8,0,0.9-0.6,0.9-1.3S212.9,69.3,212.1,69.3z"/>
		<path d="M212.1,36.2h-23.4c-0.8,0-0.9,0.6-0.9,1.3s0.1,1.3,0.9,1.3h23.4c0.8,0,0.9-0.6,0.9-1.3S212.9,36.2,212.1,36.2z"/>
		<path d="M206.7,51.7h-18c-0.8,0-0.9,0.6-0.9,1.3s0.1,1.3,0.9,1.3h18c0.8,0,0.9-0.6,0.9-1.3S207.5,51.7,206.7,51.7z"/>
		<path d="M475,69.3h-23.4c-0.8,0-0.9,0.6-0.9,1.3s0.1,1.3,0.9,1.3H475c0.8,0,0.9-0.6,0.9-1.3S475.8,69.3,475,69.3z"/>
		<path d="M475,36.2h-23.4c-0.8,0-0.9,0.6-0.9,1.3s0.1,1.3,0.9,1.3H475c0.8,0,0.9-0.6,0.9-1.3S475.8,36.2,475,36.2z"/>
		<path d="M469.6,51.7h-18c-0.8,0-0.9,0.6-0.9,1.3s0.1,1.3,0.9,1.3h18c0.8,0,0.9-0.6,0.9-1.3S470.4,51.7,469.6,51.7z"/>
		<path d="M244.4,36c5,0,11,2.2,14.3,5.7c0.6,0.7-0.1,2.2-1.2,2.2c-0.4,0-0.7-0.2-1-0.4c-3.1-3-7-4.9-12.2-4.9
			c-9.3,0-16.9,7-16.9,15.5s7.6,15.4,16.9,15.4c3.8,0,7.3-1.1,10.3-3.2c0.7-0.5,1.6-1.3,2.3-1.8c0.3-0.2,0.5-0.3,0.7-0.3
			c0.4,0,0.8,0.3,1.1,0.5c0.5,0.4,1,0.8,0.3,1.5c-3.7,3.9-9.8,5.8-14.7,5.8c-10.9,0-20-8-20-18C224.4,44,233.5,36,244.4,36z"/>
		<path d="M275.2,36.9c0-0.6,0.4-0.7,1-0.7h0.9c0.6,0,1.1,0,1.1,0.7v14.9h21.6V36.9c0-0.6,0.4-0.7,1-0.7h1c0.6,0,1,0.1,1,0.7v34.3
			c0,0.8-0.6,0.8-1.5,0.8c-0.8,0-1.5,0-1.5-0.8V54.4h-21.6v16.8c0,0.8-0.7,0.8-1.5,0.8c-0.8,0-1.5,0-1.5-0.8V36.9z"/>
		<path d="M337.7,36c5.7,0,11.6,2,14.3,5.5c0.5,0.6,0.3,1-0.2,1.5c-0.4,0.4-0.8,0.5-1.2,0.5c-0.3,0-0.7-0.1-1-0.4
			c-3.5-3-7.3-4.4-12-4.4c-9.4,0-16.9,6.9-16.9,15.5c0,8.5,7.5,15.4,16.8,15.4c4.4,0,8.7-1.7,11.9-4.4v-9.3h-7.8
			c-0.8,0-0.8-0.5-0.8-1.3s0-1.3,0.8-1.3h9.7c0.8,0,1.1,0.2,1.1,1v11.5c0,0.4-0.1,0.6-0.5,0.9c-3.8,3.5-9,5.6-14.4,5.6
			c-10.9,0-19.8-8.1-19.8-18.1C317.7,44,326.7,36,337.7,36z"/>
		<path d="M388.3,43.6l-2.8-6.1c-0.3-0.7-1.6-3.3-1.6-3.3s-1.3,2.6-1.5,2.9L367,70.9c-0.5,1,0.7,1.1,1.5,1.1h0.2
			c0.5,0,1.1,0,1.3-0.5l3.7-8.1l1.2-2.6l9-19.7l9,19.7l1.2,2.6l3.7,8.1c0.2,0.5,0.9,0.5,1.5,0.5h0.4c0.7,0,1.3,0,1.3-0.5
			C400.9,70.7,389.5,46.3,388.3,43.6z"/>
		<path d="M408.9,37.5c0-0.8,0-1.3,0.8-1.3h23.3c0.8,0,0.8,0.6,0.8,1.3c0,0.7,0,1.3-0.8,1.3h-10.2v32.4c0,0.8-0.7,0.8-1.5,0.8
			s-1.5,0-1.5-0.8V38.8h-10.2C409,38.8,408.9,38.3,408.9,37.5z"/>
	</g>
</g>
</svg>
